<?xml version="1.0" encoding="UTF-8" standalone="no"?>
<svg
   xmlns:dc="http://purl.org/dc/elements/1.1/"
   xmlns:cc="http://creativecommons.org/ns#"
   xmlns:rdf="http://www.w3.org/1999/02/22-rdf-syntax-ns#"
   xmlns:svg="http://www.w3.org/2000/svg"
   xmlns="http://www.w3.org/2000/svg"
   xmlns:sodipodi="http://sodipodi.sourceforge.net/DTD/sodipodi-0.dtd"
   xmlns:inkscape="http://www.inkscape.org/namespaces/inkscape"
   height="236"
   width="236"
   version="1.1"
   id="Layer_1"
   viewBox="0 0 471.9972 471.9972"
   xml:space="preserve"
   fill="#000000"
   sodipodi:docname="manuela-arm.svg"
   inkscape:export-filename="C:\_dev\Manuela\assets\manuela-arm.png"
   inkscape:export-xdpi="156.63499"
   inkscape:export-ydpi="156.63499"
   inkscape:version="1.0.2-2 (e86c870879, 2021-01-15)"><metadata
   id="metadata22"><rdf:RDF><cc:Work
       rdf:about=""><dc:format>image/svg+xml</dc:format><dc:type
         rdf:resource="http://purl.org/dc/dcmitype/StillImage" /><dc:title></dc:title></cc:Work></rdf:RDF></metadata><defs
   id="defs20">    </defs><sodipodi:namedview
   pagecolor="#ffffff"
   bordercolor="#666666"
   borderopacity="1"
   objecttolerance="10"
   gridtolerance="10"
   guidetolerance="10"
   inkscape:pageopacity="0"
   inkscape:pageshadow="2"
   inkscape:window-width="1920"
   inkscape:window-height="1009"
   id="namedview18"
   showgrid="false"
   inkscape:zoom="1.1877184"
   inkscape:cx="127.98967"
   inkscape:cy="233.31266"
   inkscape:window-x="-8"
   inkscape:window-y="-8"
   inkscape:window-maximized="1"
   inkscape:current-layer="Layer_1" />

<g
   id="SVGRepo_bgCarrier"
   stroke-width="0" />

<g
   id="SVGRepo_tracerCarrier"
   stroke-linecap="round"
   stroke-linejoin="round" />

<g
   id="g858"
   transform="translate(5.9583401,16.965739)"><path
     style="opacity:0.999;fill:#334155"
     d="m 48.598673,147.91218 c 68.523997,-9.004 94.422997,13.094 134.934997,61.958 2.373,-0.283 39.151,-18.621 73.738,-3.799 34.587,14.823 46.815,59.734 65.756,57.392 l 16.911,-2.091 c -17.876,-47.128 -16.578,-103.176 -18.117,-152.564 -24.701,3.287 -26.983,-11.126999 -43.67,-9.499999 -15.583,1.518999 -33.443,-12.932 -33.443,-12.932 0,0 -27.368,-36.486 -25.847,-46.747 1.521,-10.264 17.865,-11.021 17.865,-11.021 0,0 8.49,-18.332 14.568,-22.8879996 3.89,-2.916 18.19,2.945 31.908,3.051 8.039,0.06 14.686,9.3199996 20.695,9.4279996 21.981,0.383 20.135,7.968 31.654,13.451 15.961,7.599 34.207,69.831999 34.207,69.831999 22.5,45.006 50.53,72.982 69.956,134.243 16.8,52.99 24.323,103.385 -1.521,113.266 -25.844,9.886 -81.342,27.368 -124.669,35.731 -43.329,8.363 -144.818,0.003 -171.043,-19.764 -10.923,10.298 -19.017,40.379 -26.645,68.2 -66.914997,-46.182 -110.7799972,-123.378 -110.7799972,-210.833 0,-27.043 4.205,-53.1 11.9770002,-77.57 l 31.57,3.161 z"
     id="path6" /><g
     id="g14"
     style="opacity:0.999"
     transform="translate(5.0516728,-33.677819)"> <path
   style="fill:#0f172a"
   d="m 43.547,181.59 c 44.948,-5.907 71.556,1.571 95.978,21.207 C 79.812,180.512 36.559,195.434 36.559,195.434 L 9.382,187.135 c 0.815,-2.922 1.682,-5.823 2.597,-8.703 l 31.57,3.158 z m 66.971,285.061 c -2.122,-1.466 -4.221,-2.964 -6.296,-4.496 9.385,-57.643 13.354,-114.814 13.354,-114.814 23.568,-12.163 44.163,9.259 44.163,9.259 58.996,37.173 116.511,54.202 185.748,29.632 23.565,-8.36 80.579,-17.485 92.744,-32.688 12.076,-15.092 -13.341,-105.557 -13.705,-106.848 2.84,7.064 5.566,14.586 8.136,22.7 16.8,52.99 24.323,103.385 -1.521,113.266 -25.844,9.886 -81.342,27.368 -124.669,35.731 -43.329,8.363 -144.818,0.003 -171.043,-19.764 -3.567,3.365 -16.107,37.396 -26.906,68.02 z m 198.847,-171.65 c 2.781,1.695 5.611,2.51 8.611,2.141 l 16.911,-2.091 c 6.431,7.441 14.854,12.516 14.854,12.516 -21.805,5.59 -24.195,1.212 -40.376,-12.564 z"
   id="path8" /> <path
   style="fill:#0f172a"
   d="m 309.04,91.934 c 0,0 -2.571,13.441 4.15,22.928 l -17.546,3.412 c -13.868,-11.174 -28.386,-21.58 -43.01,-21.249 -1.293,0.029 -2.41,-0.37 -3.396,-1.207 l -9.829,-8.378 c 18.872,1.424 13.789,-14.744 9.784,-16.207 -0.865,-0.314 -4.252,-2.557 -10.345,-4.737 -3.177,-1.139 -12.711,-3.36 -12.721,-3.362 3.093,-0.738 5.542,-0.85 5.542,-0.85 0,0 0.28,-0.63 1.372,-2.817 4.701,2.906 23.14,11.717 22.526,17.317 l -1.466,13.354 c 4.289,5.663 35.24,16.837 41.596,16.478 7.242,-0.409 9.453,-5.432 8.331,-8.656 -0.97,-2.791 -4.498,-3.473 -8.821,-7.997 l 10.269,1.724 c 0.498,-2.29 2.508,0.312 3.567,0.255 z"
   id="path10" /> <path
   style="fill:#0f172a"
   d="m 327.81,132.228 c -6.72,-0.396 -4.886,6.277 -11.04,10.256 0.343,11.061 0.548,22.456 0.855,34.009 3.331,-22.914 -5.437,-31.888 10.731,-36.358 17.821,-4.923 26.723,-18.912 17.842,-39.644 0.825,13.418 3.322,33.014 -18.388,31.737 z"
   id="path12" /> </g></g>

</svg>
