<?xml version="1.0" encoding="UTF-8" standalone="no"?>
<svg
   xmlns:dc="http://purl.org/dc/elements/1.1/"
   xmlns:cc="http://creativecommons.org/ns#"
   xmlns:rdf="http://www.w3.org/1999/02/22-rdf-syntax-ns#"
   xmlns:svg="http://www.w3.org/2000/svg"
   xmlns="http://www.w3.org/2000/svg"
   xmlns:sodipodi="http://sodipodi.sourceforge.net/DTD/sodipodi-0.dtd"
   xmlns:inkscape="http://www.inkscape.org/namespaces/inkscape"
   width="40mm"
   height="10mm"
   viewBox="0 0 40 10"
   version="1.1"
   id="svg8"
   inkscape:version="1.0.2-2 (e86c870879, 2021-01-15)"
   sodipodi:docname="manuela.svg"
   inkscape:export-filename="C:\_dev\Manuela\samples\MauiApp1\Resources\Images\manuela_text_light.png"
   inkscape:export-xdpi="156.6353"
   inkscape:export-ydpi="156.6353">
  <defs
     id="defs2" />
  <sodipodi:namedview
     id="base"
     pagecolor="#ffffff"
     bordercolor="#666666"
     borderopacity="1.0"
     inkscape:pageopacity="0.0"
     inkscape:pageshadow="2"
     inkscape:zoom="2.7243243"
     inkscape:cx="142.51654"
     inkscape:cy="44.740411"
     inkscape:document-units="mm"
     inkscape:current-layer="layer1"
     inkscape:document-rotation="0"
     showgrid="false"
     inkscape:window-width="1920"
     inkscape:window-height="1009"
     inkscape:window-x="-8"
     inkscape:window-y="-8"
     inkscape:window-maximized="1" />
  <metadata
     id="metadata5">
    <rdf:RDF>
      <cc:Work
         rdf:about="">
        <dc:format>image/svg+xml</dc:format>
        <dc:type
           rdf:resource="http://purl.org/dc/dcmitype/StillImage" />
        <dc:title></dc:title>
      </cc:Work>
    </rdf:RDF>
  </metadata>
  <g
     inkscape:label="Capa 1"
     inkscape:groupmode="layer"
     id="layer1">
    <path
       d="m 14.42413,2.2017303 q -0.222208,0.3255605 -0.496092,0.7803116 -0.273884,0.4547512 -0.583942,1.0180225 -0.263549,0.4702541 -0.52193,1.0025196 -0.253214,0.5270979 -0.485757,1.0490283 -0.232543,0.5167626 -0.428913,0.9973519 -0.19637,0.4754217 -0.341063,0.8423232 -0.144694,0.3617339 -0.227376,0.5839418 -0.08268,0.2170403 -0.08268,0.222208 -0.05168,0.1291906 -0.186034,0.1291906 -0.06718,0 -0.118856,-0.041341 -0.05168,-0.046509 -0.06718,-0.1136878 0,-0.00517 -0.05168,-0.2170403 Q 10.786121,8.2375184 10.703439,7.8809521 10.620757,7.5192183 10.512237,7.0541318 10.408884,6.5838778 10.290029,6.0774504 10.176341,5.5658553 10.057486,5.043925 9.9386303,4.5219947 9.8352778,4.0517407 9.4890468,5.0284221 9.1376482,5.7828957 8.7914172,6.5322015 8.4245157,7.0903052 8.0576142,7.6432413 7.6648745,8.0204781 7.2773025,8.3977148 6.8483895,8.630258 6.4246441,8.8576336 5.9543901,8.9558185 q -0.4650864,0.098185 -0.9870168,0.098185 -0.2687165,0 -0.5736065,-0.062011 Q 4.0888768,8.935148 3.7891544,8.8111249 3.4894321,8.6871019 3.2155479,8.5010673 2.9416637,8.3150328 2.729791,8.0618191 2.5179183,7.8034377 2.3938952,7.4830449 2.2698722,7.1574844 2.2698722,6.7595771 q 0,-0.4185777 0.1756993,-0.7648087 Q 2.6212708,5.6433697 2.9209931,5.3953237 3.2207155,5.1421099 3.6134551,5.002584 4.0113624,4.8630581 4.4506107,4.8630581 q 0.3203928,0 0.5736065,0.056844 0.2583814,0.051676 0.4547512,0.1343583 0.1963698,0.082682 0.3358957,0.1808669 0.139526,0.098185 0.2325432,0.180867 0.093017,0.082682 0.1343583,0.1446935 0.041341,0.056844 0.046509,0.056844 0.031006,0.056844 0.031006,0.1085202 0,0.072347 -0.056844,0.1343583 -0.051676,0.062011 -0.1395259,0.062011 -0.1033525,0 -0.165364,-0.08785 -0.00517,-0.00517 -0.082682,-0.093017 Q 5.7373497,5.6485374 5.5616504,5.5400172 5.3859511,5.431497 5.1068993,5.3436474 q -0.2738842,-0.08785 -0.6717915,-0.08785 -0.3617339,0 -0.6872944,0.1136878 Q 3.4274206,5.4780057 3.1845421,5.6795431 2.9468313,5.8810806 2.8021377,6.1601324 2.6626118,6.4340166 2.6626118,6.7647447 q 0,0.3255605 0.1085202,0.5942771 0.1085201,0.2687166 0.2893871,0.4805893 0.1808669,0.2118727 0.4185777,0.3669015 0.2377109,0.1550288 0.4960922,0.2583814 0.2583813,0.098185 0.5167627,0.1498611 0.263549,0.046509 0.4960922,0.046509 0.3927396,0 0.7648087,-0.056844 Q 6.1300894,8.5424084 6.4918232,8.3770443 6.8587247,8.2116802 7.2101234,7.9222931 7.561522,7.632906 7.907753,7.1678196 8.253984,6.7027332 8.5898797,6.0464446 8.9309431,5.390156 9.2720065,4.4961566 9.375359,4.22744 9.4735439,3.9173824 9.5717288,3.6073248 9.6750813,3.2920996 9.5872317,2.8373484 9.5458907,2.5169555 9.5097173,2.1965627 9.5097173,1.98469 q 0,-0.2273756 0.036173,-0.3617339 0.036173,-0.1343583 0.093017,-0.2015374 0.056844,-0.072347 0.124023,-0.08785 0.067179,-0.020671 0.1291907,-0.020671 0.051676,0 0.113687,0.020671 0.06718,0.020671 0.118856,0.093017 0.05684,0.067179 0.09302,0.2015374 0.03617,0.1343583 0.03617,0.3617339 0,0.2480461 -0.04651,0.5736066 -0.04651,0.3255605 -0.139526,0.7183001 0.06718,0.3152252 0.155029,0.7027972 0.08785,0.387572 0.180867,0.8061498 0.09302,0.4134102 0.191202,0.8474908 0.09818,0.4340807 0.191202,0.8474908 0.09302,0.4134101 0.175699,0.7906469 0.08785,0.3772368 0.160197,0.6821267 0.139526,-0.3513986 0.341063,-0.8474908 0.201538,-0.5012598 0.449584,-1.0593634 0.248046,-0.5632714 0.52193,-1.1420456 0.279052,-0.5839418 0.568439,-1.1007045 0.408243,-0.733803 0.749306,-1.2557333 0.341063,-0.5270979 0.589109,-0.8681613 0.248046,-0.3410633 0.387572,-0.5012598 0.144694,-0.165364 0.155029,-0.1808669 0.05684,-0.0568439 0.139526,-0.0568439 0.08785,0 0.139526,0.0620115 0.05684,0.056844 0.05684,0.1343583 0,0.036173 -0.0155,0.072347 0,0.00517 -0.06201,0.1550288 -0.05684,0.1446935 -0.149861,0.4030749 -0.08785,0.2532137 -0.19637,0.5994447 -0.10852,0.3410634 -0.211872,0.7389706 -0.103353,0.3927397 -0.186035,0.8268203 -0.07751,0.428913 -0.113688,0.857826 -0.0155,0.1963699 -0.02584,0.4134102 -0.01033,0.2118727 -0.01033,0.428913 0,0.3410634 0.03101,0.6872944 0.03101,0.346231 0.103352,0.6666238 0.07235,0.3203929 0.19637,0.6046124 0.124023,0.2790518 0.30489,0.4909245 0.180867,0.2118727 0.428913,0.3410634 0.253214,0.1291906 0.583942,0.1395259 0.08268,0.00517 0.129191,0.072347 0.05168,0.062011 0.05168,0.1343583 0,0.072347 -0.05684,0.1291906 -0.05684,0.056844 -0.134358,0.056844 -0.08268,0 -0.165364,-0.015503 Q 15.349136,8.893807 15.064916,8.7336105 14.780697,8.5682465 14.573992,8.3305357 14.367286,8.0876572 14.227761,7.7827672 14.093402,7.4727096 14.01072,7.121311 13.928038,6.7699124 13.891865,6.3926756 q -0.03101,-0.3824044 -0.03101,-0.7699764 0,-0.4599188 0.04651,-0.9198375 0.04651,-0.4599188 0.124023,-0.8939995 0.07751,-0.4392482 0.180867,-0.8474908 0.103352,-0.4082425 0.211872,-0.7596411 z"
       style="font-style:normal;font-variant:normal;font-weight:normal;font-stretch:normal;font-size:10.5833px;line-height:1.25;font-family:Sacramento;-inkscape-font-specification:Sacramento;opacity:0.997;fill:#4f46ff;fill-opacity:1;stroke-width:0.264583"
       id="path880" />
    <path
       d="m 20.372069,7.4158657 q -0.02067,0.041341 -0.08785,0.1756993 -0.06201,0.1291907 -0.165364,0.2997224 -0.09819,0.1705317 -0.232543,0.3565662 -0.134358,0.1860346 -0.299722,0.3410634 -0.165364,0.1550288 -0.356566,0.2583813 -0.191203,0.098185 -0.403075,0.098185 -0.299723,0 -0.506428,-0.1912021 -0.201537,-0.1912022 -0.294555,-0.4805893 -0.175699,0.2945547 -0.418577,0.470254 -0.242879,0.1705317 -0.485757,0.1705317 -0.191202,0 -0.346231,-0.067179 Q 16.620372,8.7749516 16.511852,8.6509288 16.403332,8.5217382 16.34132,8.3512065 16.28448,8.1806748 16.28448,7.9791373 q 0,-0.4030748 0.134359,-0.7079648 0.139525,-0.3100576 0.351398,-0.5167627 0.211873,-0.2067051 0.465087,-0.3100576 0.258381,-0.1033525 0.496092,-0.1033525 0.160196,0 0.294554,0.046509 0.134359,0.041341 0.227376,0.093017 0.09819,0.051676 0.149861,0.098185 0.05168,0.041341 0.05684,0.046509 0.05684,0.067179 0.05684,0.1395259 0,0.077514 -0.05684,0.139526 -0.05684,0.056844 -0.134358,0.056844 -0.08268,0 -0.139526,-0.056844 -0.01034,-0.010335 -0.04651,-0.036173 -0.03617,-0.031006 -0.09819,-0.062011 -0.06201,-0.031006 -0.149861,-0.051676 -0.08268,-0.025838 -0.191202,-0.025838 -0.160196,0 -0.341063,0.072347 -0.180867,0.072347 -0.330728,0.2273756 -0.149862,0.1498612 -0.253214,0.3824044 -0.09818,0.2273756 -0.09818,0.5426008 0,0.098185 0.02067,0.2015374 0.02067,0.098185 0.07235,0.180867 0.05168,0.082682 0.139526,0.1343583 0.08785,0.051676 0.21704,0.051676 0.09302,0 0.211873,-0.062012 0.124023,-0.062012 0.232543,-0.1912022 0.113688,-0.1291906 0.201538,-0.3255604 0.09302,-0.1963699 0.12919,-0.4650865 0.01034,-0.072347 0.06718,-0.1188554 0.05684,-0.051676 0.134358,-0.051676 0.07235,0 0.124023,0.056844 0.05684,0.056844 0.06201,0.1291906 0.0052,0.098185 0.02067,0.2790519 0.0155,0.1756993 0.06718,0.3513986 0.05684,0.1756993 0.165364,0.30489 0.10852,0.1291906 0.299723,0.1291906 0.124023,0 0.242878,-0.067179 0.124023,-0.067179 0.237711,-0.1756993 0.118855,-0.1136878 0.222208,-0.2532137 0.10852,-0.1446936 0.19637,-0.2893871 0.08785,-0.1446936 0.155028,-0.2790519 0.06718,-0.1343583 0.113688,-0.2325432 0.02584,-0.056844 0.07235,-0.08785 0.05168,-0.031006 0.10852,-0.031006 0.08785,0 0.139526,0.067179 0.05684,0.062012 0.05684,0.1343583 0,0.036173 -0.0155,0.072347 z"
       style="font-style:normal;font-variant:normal;font-weight:normal;font-stretch:normal;font-size:10.5833px;line-height:1.25;font-family:Sacramento;-inkscape-font-specification:Sacramento;opacity:0.997;fill:#4f46ff;fill-opacity:1;stroke-width:0.264583"
       id="path882" />
    <path
       d="m 21.162717,8.3925472 q 0.08268,-0.1705317 0.191202,-0.3720691 0.10852,-0.2067051 0.232543,-0.4134102 0.124023,-0.2118727 0.258381,-0.4185778 0.139526,-0.206705 0.289388,-0.3927396 0.149861,-0.1808669 0.299722,-0.2583813 0.155029,-0.082682 0.289387,-0.082682 0.268717,0 0.397907,0.1963699 0.129191,0.1963698 0.129191,0.4857569 0,0.067179 -0.01033,0.165364 -0.0052,0.093017 -0.0155,0.2015375 -0.0052,0.1085201 -0.0155,0.2222079 -0.0052,0.1085202 -0.0052,0.2067051 0,0.124023 0.01034,0.2377108 0.0155,0.1136878 0.05168,0.2015375 0.03617,0.082682 0.103352,0.1343583 0.06718,0.046509 0.1757,0.046509 0.196369,0 0.382404,-0.1498612 0.186035,-0.1550288 0.341063,-0.3617338 0.160197,-0.2118727 0.273885,-0.4289131 0.118855,-0.2170403 0.175699,-0.3513986 0.02584,-0.056844 0.07235,-0.08785 0.05168,-0.031006 0.10852,-0.031006 0.08785,0 0.139526,0.067179 0.05684,0.062012 0.05684,0.1343583 0,0.036173 -0.0155,0.072347 -0.02067,0.041341 -0.08268,0.1705317 -0.06201,0.1291907 -0.165364,0.2997224 -0.09818,0.165364 -0.232543,0.3565662 -0.134359,0.1860346 -0.299723,0.3410634 -0.160196,0.1550288 -0.351398,0.2583813 -0.186035,0.1033525 -0.39274,0.1033525 -0.232543,0 -0.377237,-0.08785 -0.144693,-0.093017 -0.227375,-0.2377108 -0.08268,-0.1498612 -0.113688,-0.3255605 -0.02584,-0.180867 -0.02584,-0.3617339 0,-0.077514 0.0052,-0.1756993 0.01034,-0.098185 0.02067,-0.2067051 0.0155,-0.1085201 0.02067,-0.2170403 0.01034,-0.1085202 0.01034,-0.2067051 0,-0.165364 -0.05168,-0.2222079 -0.05168,-0.062012 -0.09302,-0.062012 -0.08268,0 -0.191202,0.098185 -0.103353,0.093017 -0.222208,0.248046 -0.113688,0.1550288 -0.237711,0.3513987 -0.118855,0.1912022 -0.227376,0.3824043 -0.103352,0.1912022 -0.196369,0.3669015 -0.08785,0.1705317 -0.139526,0.2842195 -0.103353,0.2170403 -0.206705,0.2893871 -0.103353,0.077514 -0.211873,0.077514 -0.149861,0 -0.242879,-0.08785 -0.08785,-0.093017 -0.08785,-0.2583814 0,-0.036173 0.01034,-0.1395259 0.01033,-0.1085202 0.02584,-0.2532137 0.0155,-0.1498612 0.03101,-0.3203929 0.0155,-0.1705317 0.03101,-0.3358957 0.0155,-0.1705317 0.02584,-0.3152252 0.01033,-0.1446936 0.01033,-0.2428785 0,-0.1291907 -0.01033,-0.2480461 -0.01034,-0.1188554 -0.04134,-0.1446935 -0.04651,0.015503 -0.165364,0.1963698 -0.118856,0.1756993 -0.30489,0.6252828 -0.02584,0.056844 -0.07752,0.08785 -0.05168,0.031006 -0.10852,0.031006 -0.08785,0 -0.139526,-0.056844 -0.05168,-0.062011 -0.05168,-0.1395259 0,-0.036173 0.0155,-0.077514 0.232543,-0.552936 0.434081,-0.8113174 0.206705,-0.263549 0.408242,-0.263549 0.118856,0 0.201538,0.062012 0.08268,0.056844 0.12919,0.1550288 0.05168,0.098185 0.07235,0.2170403 0.02584,0.1188554 0.02584,0.2428785 0,0.093017 -0.0155,0.2893871 -0.01034,0.1963698 -0.03101,0.4237454 -0.02067,0.2222079 -0.04134,0.4444159 -0.0155,0.2222079 -0.03101,0.3720691 z"
       style="font-style:normal;font-variant:normal;font-weight:normal;font-stretch:normal;font-size:10.5833px;line-height:1.25;font-family:Sacramento;-inkscape-font-specification:Sacramento;opacity:0.997;fill:#4f46ff;fill-opacity:1;stroke-width:0.264583"
       id="path884" />
    <path
       d="m 26.438862,8.2788594 q -0.180867,0.2945547 -0.423745,0.4650864 -0.237711,0.1705317 -0.48059,0.1705317 -0.196369,0 -0.351398,-0.072347 Q 25.0281,8.7697839 24.914412,8.6405933 24.800724,8.506235 24.738713,8.3202004 q -0.05684,-0.1860346 -0.05684,-0.4185778 0,-0.3617338 0.06718,-0.6407857 0.07235,-0.2790518 0.155029,-0.4650864 0.08268,-0.1912022 0.155029,-0.2893871 0.07235,-0.098185 0.07235,-0.098185 0.02584,-0.031006 0.06201,-0.046509 0.04134,-0.015503 0.08268,-0.015503 0.08268,0 0.134358,0.062011 0.05684,0.056844 0.05684,0.1343583 0,0.031006 -0.0155,0.062012 -0.01033,0.031006 -0.02584,0.062011 -0.02584,0.046509 -0.08268,0.1446936 -0.05684,0.093017 -0.118855,0.2480461 -0.06201,0.1550288 -0.10852,0.3669015 -0.04651,0.206705 -0.04651,0.4754216 0,0.30489 0.118855,0.4650864 0.124023,0.1550289 0.346231,0.1550289 0.09302,0 0.211873,-0.056844 0.124023,-0.062012 0.237711,-0.1860346 0.118855,-0.1240231 0.206705,-0.3152252 0.08785,-0.1912022 0.113688,-0.4495836 l 0.07751,-0.8888318 q 0.01034,-0.077514 0.06718,-0.1291906 0.05684,-0.051676 0.134359,-0.051676 0.08785,0 0.139526,0.067179 0.05168,0.062012 0.05168,0.1446936 l -0.06718,0.857826 q -0.01034,0.1085202 0.0052,0.2842195 0.02067,0.1756993 0.07752,0.346231 0.05684,0.1705317 0.170531,0.2945547 0.113688,0.1188554 0.299723,0.1188554 0.134358,0 0.263549,-0.067179 0.12919,-0.072347 0.248046,-0.1860346 0.118855,-0.1136878 0.21704,-0.2532137 0.103353,-0.1446935 0.186035,-0.2893871 0.08785,-0.1446935 0.149861,-0.2738842 0.06201,-0.1343583 0.103352,-0.2273756 0.02584,-0.056844 0.07235,-0.08785 0.04651,-0.031006 0.103353,-0.031006 0.09302,0 0.144693,0.062011 0.05168,0.062012 0.05168,0.1343583 0,0.041341 -0.0155,0.077514 -0.02067,0.041341 -0.08268,0.1756993 -0.05684,0.1291907 -0.155029,0.2997224 -0.09302,0.165364 -0.227376,0.3513986 -0.134358,0.1860346 -0.299722,0.346231 -0.165364,0.1550288 -0.361734,0.2583813 -0.191202,0.098185 -0.41341,0.098185 -0.30489,0 -0.506428,-0.1705316 Q 26.537099,8.59925 26.438914,8.2788571 Z"
       style="font-style:normal;font-variant:normal;font-weight:normal;font-stretch:normal;font-size:10.5833px;line-height:1.25;font-family:Sacramento;-inkscape-font-specification:Sacramento;opacity:0.997;fill:#4f46ff;fill-opacity:1;stroke-width:0.264583"
       id="path886" />
    <path
       d="m 29.048514,8.2891946 q 0.10852,0.1498612 0.279052,0.2428785 0.170532,0.08785 0.418578,0.08785 0.253213,0 0.459918,-0.1188555 0.206705,-0.124023 0.377237,-0.3203928 0.170532,-0.1963698 0.30489,-0.4392483 0.134358,-0.2428785 0.242879,-0.4857569 0.02584,-0.056844 0.07235,-0.082682 0.04651,-0.031006 0.103353,-0.031006 0.08785,0 0.139526,0.062011 0.05684,0.062012 0.05684,0.1343583 0,0.025838 -0.0052,0.046509 -0.0052,0.015503 -0.0155,0.036173 -0.356566,0.7854793 -0.780311,1.1833866 -0.418578,0.3979072 -0.950844,0.4082425 -0.341063,0 -0.589109,-0.1343583 Q 28.914127,8.749113 28.75393,8.542408 28.593734,8.3305353 28.516219,8.0669863 q -0.07751,-0.263549 -0.07751,-0.5270979 0,-0.263549 0.06201,-0.485757 0.06718,-0.2222079 0.186034,-0.387572 0.124023,-0.165364 0.289387,-0.2583813 0.170532,-0.093017 0.372069,-0.093017 0.118856,0 0.232544,0.051676 0.118855,0.046509 0.211872,0.1395259 0.09302,0.08785 0.149861,0.2170403 0.05684,0.1291907 0.05684,0.2945548 0,0.2118727 -0.07235,0.3979072 -0.07235,0.1860346 -0.201538,0.346231 -0.124023,0.1601964 -0.299722,0.2945547 -0.1757,0.1343583 -0.377237,0.2325432 z M 28.893485,7.9532989 q 0.160197,-0.067179 0.289387,-0.1705317 0.134359,-0.1033525 0.227376,-0.2273756 0.09302,-0.124023 0.144693,-0.2583813 0.05168,-0.1395259 0.05168,-0.2790518 0,-0.1550288 -0.07752,-0.2325432 -0.07751,-0.082682 -0.180867,-0.082682 -0.139526,0 -0.23771,0.077514 -0.09819,0.077514 -0.160197,0.2015375 -0.06201,0.124023 -0.09302,0.2790518 -0.02584,0.1498612 -0.02584,0.2997224 0,0.093017 0.0155,0.1963698 0.02067,0.1033525 0.04651,0.1963698 z"
       style="font-style:normal;font-variant:normal;font-weight:normal;font-stretch:normal;font-size:10.5833px;line-height:1.25;font-family:Sacramento;-inkscape-font-specification:Sacramento;opacity:0.997;fill:#4f46ff;fill-opacity:1;stroke-width:0.264583"
       id="path888" />
    <path
       d="m 34.071448,7.426201 q -0.05684,0.1188554 -0.144694,0.2842194 -0.08268,0.1601965 -0.191202,0.3358958 -0.10852,0.1756993 -0.242879,0.3513986 -0.134358,0.1705317 -0.294554,0.3100576 -0.155029,0.1343583 -0.335896,0.2170403 -0.175699,0.08785 -0.377237,0.08785 -0.310057,0 -0.532265,-0.1912022 Q 31.730513,8.630258 31.575484,8.3202004 31.420455,8.0101428 31.32227,7.6174032 31.229253,7.2194959 31.177577,6.8112534 31.1259,6.3978432 31.10523,6.0102712 q -0.0155,-0.387572 -0.0155,-0.6872943 0,-0.4340807 0.02584,-0.8991671 0.03101,-0.4650864 0.09302,-0.9095023 0.06201,-0.4444159 0.155029,-0.8423232 0.09819,-0.3979072 0.227376,-0.6976296 0.134358,-0.2997223 0.30489,-0.4754216 0.170531,-0.1756993 0.387572,-0.1756993 0.170531,0 0.30489,0.082682 0.139526,0.077514 0.232543,0.2583813 0.09302,0.180867 0.144693,0.4702541 0.05168,0.2893871 0.05168,0.7079648 0,0.5167627 -0.10852,1.0696988 -0.108521,0.5477684 -0.294555,1.1058721 -0.186035,0.5581037 -0.439248,1.1162074 -0.253214,0.552936 -0.542601,1.080034 0.12919,0.6562886 0.346231,1.0335253 0.21704,0.3720692 0.52193,0.3720692 0.206705,0 0.397907,-0.1601965 0.191202,-0.165364 0.351399,-0.387572 0.160196,-0.2222079 0.279052,-0.4495835 0.124023,-0.2325432 0.191202,-0.3720691 0.02584,-0.051676 0.07235,-0.077514 0.04651,-0.031006 0.103352,-0.031006 0.08785,0 0.139526,0.062011 0.05684,0.062012 0.05684,0.1395259 0,0.031006 -0.02067,0.082682 z M 31.482467,5.348815 q 0,0.3307281 0.0155,0.6356181 0.0155,0.30489 0.04134,0.5839418 0.217041,-0.4185777 0.413411,-0.8888318 0.196369,-0.4754216 0.346231,-0.9560109 0.149861,-0.4857569 0.23771,-0.9611786 0.09302,-0.4805893 0.09302,-0.9146699 0,-0.60978 -0.09819,-0.873329 -0.09819,-0.2635489 -0.263549,-0.2635489 -0.10852,0 -0.211873,0.1498611 -0.09818,0.1498612 -0.186034,0.4082426 -0.08785,0.2583813 -0.160197,0.6097799 -0.07235,0.3513986 -0.124023,0.7544735 -0.04651,0.4030749 -0.07751,0.8423232 -0.02584,0.4392483 -0.02584,0.8733289 z"
       style="font-style:normal;font-variant:normal;font-weight:normal;font-stretch:normal;font-size:10.5833px;line-height:1.25;font-family:Sacramento;-inkscape-font-specification:Sacramento;opacity:0.997;fill:#4f46ff;fill-opacity:1;stroke-width:0.264583"
       id="path890" />
    <path
       d="m 37.714625,7.4158657 q -0.02067,0.041341 -0.08785,0.1756993 -0.06201,0.1291907 -0.165364,0.2997224 -0.09819,0.1705317 -0.232543,0.3565662 -0.134358,0.1860346 -0.299722,0.3410634 -0.165364,0.1550288 -0.356566,0.2583813 -0.191203,0.098185 -0.403075,0.098185 -0.299723,0 -0.506428,-0.1912021 -0.201537,-0.1912022 -0.294555,-0.4805893 -0.175699,0.2945547 -0.418577,0.470254 -0.242879,0.1705317 -0.485757,0.1705317 -0.191202,0 -0.346231,-0.067179 -0.155029,-0.072347 -0.263549,-0.1963698 -0.10852,-0.1291906 -0.170532,-0.2997223 -0.05684,-0.1705317 -0.05684,-0.3720692 0,-0.4030748 0.134359,-0.7079648 0.139525,-0.3100576 0.351398,-0.5167627 0.211873,-0.2067051 0.465087,-0.3100576 0.258381,-0.1033525 0.496092,-0.1033525 0.160196,0 0.294554,0.046509 0.134359,0.041341 0.227376,0.093017 0.09819,0.051676 0.149861,0.098185 0.05168,0.041341 0.05684,0.046509 0.05684,0.067179 0.05684,0.1395259 0,0.077514 -0.05684,0.139526 -0.05684,0.056844 -0.134358,0.056844 -0.08268,0 -0.139526,-0.056844 -0.01034,-0.010335 -0.04651,-0.036173 -0.03617,-0.031006 -0.09819,-0.062011 -0.06201,-0.031006 -0.149861,-0.051676 -0.08268,-0.025838 -0.191202,-0.025838 -0.160196,0 -0.341063,0.072347 -0.180867,0.072347 -0.330728,0.2273756 -0.149862,0.1498612 -0.253214,0.3824044 -0.09818,0.2273756 -0.09818,0.5426008 0,0.098185 0.02067,0.2015374 0.02067,0.098185 0.07235,0.180867 0.05168,0.082682 0.139526,0.1343583 0.08785,0.051676 0.21704,0.051676 0.09302,0 0.211873,-0.062012 0.124023,-0.062012 0.232543,-0.1912022 0.113688,-0.1291906 0.201538,-0.3255604 0.09302,-0.1963699 0.12919,-0.4650865 0.01034,-0.072347 0.06718,-0.1188554 0.05684,-0.051676 0.134358,-0.051676 0.07235,0 0.124023,0.056844 0.05684,0.056844 0.06201,0.1291906 0.0052,0.098185 0.02067,0.2790519 0.0155,0.1756993 0.06718,0.3513986 0.05684,0.1756993 0.165364,0.30489 0.10852,0.1291906 0.299723,0.1291906 0.124023,0 0.242878,-0.067179 0.124023,-0.067179 0.237711,-0.1756993 0.118855,-0.1136878 0.222208,-0.2532137 0.10852,-0.1446936 0.19637,-0.2893871 0.08785,-0.1446936 0.155028,-0.2790519 0.06718,-0.1343583 0.113688,-0.2325432 0.02584,-0.056844 0.07235,-0.08785 0.05168,-0.031006 0.10852,-0.031006 0.08785,0 0.139526,0.067179 0.05684,0.062012 0.05684,0.1343583 0,0.036173 -0.0155,0.072347 z"
       style="font-style:normal;font-variant:normal;font-weight:normal;font-stretch:normal;font-size:10.5833px;line-height:1.25;font-family:Sacramento;-inkscape-font-specification:Sacramento;opacity:0.997;fill:#4f46ff;fill-opacity:1;stroke-width:0.264583"
       id="path892" />
  </g>
</svg>
